# xmcd CD database file
#
# Track frame offsets:
#	183
#	12518
#	26148
#	44460
#	62328
#	77070
#	95143
#	106898
#	123353
#	140603
#	155465
#	171665
#
# Disc length: 2442 seconds
#
# Revision: 1
# Processed by: cddbd v1.5.1PL0 Copyright (c) Steve Scherf et al.
# Submitted via: CDex 1.51
#
DISCID=a309880c
DTITLE=Charles Aznavour - Venecia Sin Tí
DYEAR=1991
DGENRE=Blues
TTITLE0=Venecia Sin Tí
TTITLE1=Muy Poco Antes De La Guerra
TTITLE2=Los Días Felices
TTITLE3=Ser
TTITLE4=El Amor Glotón
TTITLE5=Morir De Amor
TTITLE6=De Quererte Así
TTITLE7=La Juventud
TTITLE8=Pero Fue Ayer
TTITLE9=Camarada
TTITLE10=Y Yo En Mi Rincón
TTITLE11=Viví
EXTD=From: The Saint YEAR: 1991
EXTT0=
EXTT1=
EXTT2=
EXTT3=
EXTT4=
EXTT5=
EXTT6=
EXTT7=
EXTT8=
EXTT9=
EXTT10=
EXTT11=
PLAYORDER=
